<svg xmlns="http://www.w3.org/2000/svg" viewBox="0 0 1440 320"><path fill="#0099ff" fill-opacity="1" d="M0,128L21.8,122.7C43.6,117,87,107,131,112C174.5,117,218,139,262,122.7C305.5,107,349,53,393,48C436.4,43,480,85,524,128C567.3,171,611,213,655,192C698.2,171,742,85,785,69.3C829.1,53,873,107,916,138.7C960,171,1004,181,1047,160C1090.9,139,1135,85,1178,64C1221.8,43,1265,53,1309,69.3C1352.7,85,1396,107,1418,117.3L1440,128L1440,320L1418.2,320C1396.4,320,1353,320,1309,320C1265.5,320,1222,320,1178,320C1134.5,320,1091,320,1047,320C1003.6,320,960,320,916,320C872.7,320,829,320,785,320C741.8,320,698,320,655,320C610.9,320,567,320,524,320C480,320,436,320,393,320C349.1,320,305,320,262,320C218.2,320,175,320,131,320C87.3,320,44,320,22,320L0,320Z" style="user-select: auto;"></path></svg>